C:UsersJoelContactsStargate Universe 1x03 [AC3 + Spanish].mkv
   General
      Complete name : C:UsersJoelContactsStargate Universe 1x03 [AC3 + Spanish].mkv
      Format : Matroska
      File size : 439 MiB
      Duration : 40mn 52s
      Overall bit rate : 1 502 Kbps
      Encoded date : UTC 2010-05-24 22:52:38
      Writing application : VirtualDubMod 1.5.10.2 (build 2540/release)
      Writing library : libebml-0.7.5 & libmatroska-0.7.7
   Video #1
      ID : 1
      Format : MPEG-4 Visual
      Format profile : Simple@L0
      Format settings, BVOP : No
      Format settings, QPel : No
      Format settings, GMC : No warppoints
      Format settings, Matrix : Default (H.263)
      Codec ID : XVID
      Codec ID/Hint : XviD
      Duration : 40mn 52s
      Bit rate : 1 024 Kbps
      Width : 640 pixels
      Height : 352 pixels
      Display aspect ratio : 16:9
      Frame rate : 25.000 fps
      Original frame rate : 23.976 fps
      Resolution : 24 bits
      Colorimetry : 4:2:0
      Scan type : Progressive
      Bits/(Pixel*Frame) : 0.182
      Stream size : 299 MiB (68%)
      Writing library : XviD 1.0.3 (UTC 2004-12-20)
   Audio #2
      ID : 2
      Format : AC-3
      Format/Info : Audio Coding 3
      Codec ID : A_AC3
      Duration : 40mn 52s
      Bit rate mode : Constant
      Bit rate : 448 Kbps
      Channel(s) : 2 channels
      Channel positions : L R
      Sampling rate : 48.0 KHz
      Stream size : 131 MiB (30%)